<mxfile host="app.diagrams.net" agent="Mozilla/5.0 (Macintosh; Intel Mac OS X 10_15_7) AppleWebKit/537.36 (KHTML, like Gecko) Chrome/141.0.0.0 Safari/537.36" version="28.2.5" pages="2">
  <diagram name="PÃ¡gina-1" id="jlqYehsdDx2c155Zw2nM">
    <mxGraphModel dx="2253" dy="1935" grid="1" gridSize="10" guides="1" tooltips="1" connect="1" arrows="1" fold="1" page="1" pageScale="1" pageWidth="827" pageHeight="1169" math="0" shadow="0">
      <root>
        <mxCell id="0" />
        <mxCell id="1" parent="0" />
        <mxCell id="-UimedtzzMKlJ9vcg_7U-11" style="edgeStyle=orthogonalEdgeStyle;rounded=0;orthogonalLoop=1;jettySize=auto;html=1;entryX=0;entryY=0.5;entryDx=0;entryDy=0;" edge="1" parent="1" source="6-LAMqV4N6drt23zftci-2" target="VW1xWesQLFZFUT1JMT77-2">
          <mxGeometry relative="1" as="geometry" />
        </mxCell>
        <mxCell id="-UimedtzzMKlJ9vcg_7U-14" value="" style="edgeStyle=orthogonalEdgeStyle;rounded=0;orthogonalLoop=1;jettySize=auto;html=1;" edge="1" parent="1" source="6-LAMqV4N6drt23zftci-2" target="VW1xWesQLFZFUT1JMT77-2">
          <mxGeometry relative="1" as="geometry" />
        </mxCell>
        <mxCell id="6-LAMqV4N6drt23zftci-2" value="trabajador" style="whiteSpace=wrap;html=1;" vertex="1" parent="1">
          <mxGeometry x="-30" y="80" width="120" height="60" as="geometry" />
        </mxCell>
        <mxCell id="6-LAMqV4N6drt23zftci-39" value="" style="edgeStyle=orthogonalEdgeStyle;rounded=0;orthogonalLoop=1;jettySize=auto;html=1;" edge="1" parent="1" source="6-LAMqV4N6drt23zftci-4" target="6-LAMqV4N6drt23zftci-38">
          <mxGeometry relative="1" as="geometry" />
        </mxCell>
        <mxCell id="-UimedtzzMKlJ9vcg_7U-30" style="edgeStyle=orthogonalEdgeStyle;rounded=0;orthogonalLoop=1;jettySize=auto;html=1;entryX=1;entryY=0.5;entryDx=0;entryDy=0;" edge="1" parent="1" source="6-LAMqV4N6drt23zftci-4" target="VW1xWesQLFZFUT1JMT77-1">
          <mxGeometry relative="1" as="geometry" />
        </mxCell>
        <mxCell id="6-LAMqV4N6drt23zftci-4" value="articulo" style="whiteSpace=wrap;html=1;align=center;" vertex="1" parent="1">
          <mxGeometry x="425" y="585" width="135" height="60" as="geometry" />
        </mxCell>
        <mxCell id="6-LAMqV4N6drt23zftci-6" value="&lt;u&gt;id&lt;/u&gt;" style="ellipse;whiteSpace=wrap;html=1;align=center;" vertex="1" parent="1">
          <mxGeometry x="-30" y="-135" width="100" height="40" as="geometry" />
        </mxCell>
        <mxCell id="6-LAMqV4N6drt23zftci-7" value="dni" style="ellipse;whiteSpace=wrap;html=1;align=center;" vertex="1" parent="1">
          <mxGeometry x="-30" y="-45" width="100" height="40" as="geometry" />
        </mxCell>
        <mxCell id="6-LAMqV4N6drt23zftci-8" value="nombre" style="ellipse;whiteSpace=wrap;html=1;align=center;" vertex="1" parent="1">
          <mxGeometry x="-30" y="-85" width="100" height="40" as="geometry" />
        </mxCell>
        <mxCell id="6-LAMqV4N6drt23zftci-9" value="apellido" style="ellipse;whiteSpace=wrap;html=1;align=center;" vertex="1" parent="1">
          <mxGeometry x="-30" y="35" width="100" height="40" as="geometry" />
        </mxCell>
        <mxCell id="6-LAMqV4N6drt23zftci-11" value="telefono" style="ellipse;whiteSpace=wrap;html=1;align=center;" vertex="1" parent="1">
          <mxGeometry x="-30" y="-5" width="100" height="40" as="geometry" />
        </mxCell>
        <mxCell id="6-LAMqV4N6drt23zftci-33" value="" style="edgeStyle=orthogonalEdgeStyle;rounded=0;orthogonalLoop=1;jettySize=auto;html=1;" edge="1" parent="1" source="6-LAMqV4N6drt23zftci-31" target="6-LAMqV4N6drt23zftci-32">
          <mxGeometry relative="1" as="geometry" />
        </mxCell>
        <mxCell id="6-LAMqV4N6drt23zftci-37" value="" style="edgeStyle=orthogonalEdgeStyle;rounded=0;orthogonalLoop=1;jettySize=auto;html=1;" edge="1" parent="1" source="6-LAMqV4N6drt23zftci-31" target="6-LAMqV4N6drt23zftci-36">
          <mxGeometry relative="1" as="geometry" />
        </mxCell>
        <mxCell id="-UimedtzzMKlJ9vcg_7U-6" style="edgeStyle=orthogonalEdgeStyle;rounded=0;orthogonalLoop=1;jettySize=auto;html=1;entryX=0.5;entryY=0;entryDx=0;entryDy=0;" edge="1" parent="1" source="6-LAMqV4N6drt23zftci-31" target="6-LAMqV4N6drt23zftci-34">
          <mxGeometry relative="1" as="geometry" />
        </mxCell>
        <mxCell id="6-LAMqV4N6drt23zftci-31" value="total" style="triangle;whiteSpace=wrap;html=1;rotation=90;" vertex="1" parent="1">
          <mxGeometry y="200" width="60" height="80" as="geometry" />
        </mxCell>
        <mxCell id="-UimedtzzMKlJ9vcg_7U-3" value="" style="edgeStyle=orthogonalEdgeStyle;rounded=0;orthogonalLoop=1;jettySize=auto;html=1;" edge="1" parent="1" source="6-LAMqV4N6drt23zftci-32" target="-UimedtzzMKlJ9vcg_7U-2">
          <mxGeometry relative="1" as="geometry" />
        </mxCell>
        <mxCell id="-UimedtzzMKlJ9vcg_7U-21" value="" style="edgeStyle=orthogonalEdgeStyle;rounded=0;orthogonalLoop=1;jettySize=auto;html=1;" edge="1" parent="1" source="6-LAMqV4N6drt23zftci-32" target="-UimedtzzMKlJ9vcg_7U-20">
          <mxGeometry relative="1" as="geometry" />
        </mxCell>
        <mxCell id="6-LAMqV4N6drt23zftci-32" value="gerente" style="whiteSpace=wrap;html=1;" vertex="1" parent="1">
          <mxGeometry x="250" y="380" width="120" height="60" as="geometry" />
        </mxCell>
        <mxCell id="-UimedtzzMKlJ9vcg_7U-4" value="" style="edgeStyle=orthogonalEdgeStyle;rounded=0;orthogonalLoop=1;jettySize=auto;html=1;" edge="1" parent="1" source="6-LAMqV4N6drt23zftci-34" target="-UimedtzzMKlJ9vcg_7U-2">
          <mxGeometry relative="1" as="geometry" />
        </mxCell>
        <mxCell id="-UimedtzzMKlJ9vcg_7U-8" value="" style="edgeStyle=orthogonalEdgeStyle;rounded=0;orthogonalLoop=1;jettySize=auto;html=1;" edge="1" parent="1" source="6-LAMqV4N6drt23zftci-34" target="-UimedtzzMKlJ9vcg_7U-7">
          <mxGeometry relative="1" as="geometry" />
        </mxCell>
        <mxCell id="6-LAMqV4N6drt23zftci-34" value="jefe" style="whiteSpace=wrap;html=1;" vertex="1" parent="1">
          <mxGeometry x="-30" y="380" width="120" height="60" as="geometry" />
        </mxCell>
        <mxCell id="-UimedtzzMKlJ9vcg_7U-9" value="" style="edgeStyle=orthogonalEdgeStyle;rounded=0;orthogonalLoop=1;jettySize=auto;html=1;" edge="1" parent="1" source="6-LAMqV4N6drt23zftci-36" target="-UimedtzzMKlJ9vcg_7U-7">
          <mxGeometry relative="1" as="geometry" />
        </mxCell>
        <mxCell id="-UimedtzzMKlJ9vcg_7U-26" style="edgeStyle=orthogonalEdgeStyle;rounded=0;orthogonalLoop=1;jettySize=auto;html=1;exitX=0.75;exitY=1;exitDx=0;exitDy=0;entryX=0;entryY=0.5;entryDx=0;entryDy=0;" edge="1" parent="1" source="6-LAMqV4N6drt23zftci-36" target="6-LAMqV4N6drt23zftci-38">
          <mxGeometry relative="1" as="geometry" />
        </mxCell>
        <mxCell id="6-LAMqV4N6drt23zftci-36" value="vendedor" style="whiteSpace=wrap;html=1;" vertex="1" parent="1">
          <mxGeometry x="-310" y="380" width="120" height="60" as="geometry" />
        </mxCell>
        <mxCell id="6-LAMqV4N6drt23zftci-38" value="vendido" style="rhombus;whiteSpace=wrap;html=1;" vertex="1" parent="1">
          <mxGeometry x="30" y="585" width="70" height="70" as="geometry" />
        </mxCell>
        <mxCell id="6-LAMqV4N6drt23zftci-49" value="" style="endArrow=none;html=1;rounded=0;entryX=0.5;entryY=1;entryDx=0;entryDy=0;exitX=0;exitY=0.5;exitDx=0;exitDy=0;" edge="1" parent="1" source="6-LAMqV4N6drt23zftci-31" target="6-LAMqV4N6drt23zftci-2">
          <mxGeometry width="50" height="50" relative="1" as="geometry">
            <mxPoint x="240" y="400" as="sourcePoint" />
            <mxPoint x="190" y="400" as="targetPoint" />
          </mxGeometry>
        </mxCell>
        <mxCell id="6-LAMqV4N6drt23zftci-51" value="nombre" style="ellipse;whiteSpace=wrap;html=1;align=center;" vertex="1" parent="1">
          <mxGeometry x="500" y="655" width="100" height="40" as="geometry" />
        </mxCell>
        <mxCell id="6-LAMqV4N6drt23zftci-52" value="precio" style="ellipse;whiteSpace=wrap;html=1;align=center;" vertex="1" parent="1">
          <mxGeometry x="400" y="655" width="100" height="40" as="geometry" />
        </mxCell>
        <mxCell id="6-LAMqV4N6drt23zftci-53" value="&lt;u&gt;codigo&lt;/u&gt;" style="ellipse;whiteSpace=wrap;html=1;align=center;" vertex="1" parent="1">
          <mxGeometry x="450" y="695" width="100" height="40" as="geometry" />
        </mxCell>
        <mxCell id="6-LAMqV4N6drt23zftci-62" value="" style="edgeStyle=orthogonalEdgeStyle;rounded=0;orthogonalLoop=1;jettySize=auto;html=1;" edge="1" parent="1" source="6-LAMqV4N6drt23zftci-58" target="6-LAMqV4N6drt23zftci-32">
          <mxGeometry relative="1" as="geometry" />
        </mxCell>
        <mxCell id="6-LAMqV4N6drt23zftci-58" value="bonu" style="ellipse;whiteSpace=wrap;html=1;align=center;" vertex="1" parent="1">
          <mxGeometry x="260" y="470" width="100" height="40" as="geometry" />
        </mxCell>
        <mxCell id="6-LAMqV4N6drt23zftci-63" value="" style="edgeStyle=orthogonalEdgeStyle;rounded=0;orthogonalLoop=1;jettySize=auto;html=1;" edge="1" parent="1" source="6-LAMqV4N6drt23zftci-59" target="6-LAMqV4N6drt23zftci-34">
          <mxGeometry relative="1" as="geometry" />
        </mxCell>
        <mxCell id="6-LAMqV4N6drt23zftci-59" value="vendedor" style="ellipse;whiteSpace=wrap;html=1;align=center;" vertex="1" parent="1">
          <mxGeometry x="-20" y="480" width="100" height="40" as="geometry" />
        </mxCell>
        <mxCell id="6-LAMqV4N6drt23zftci-64" value="" style="edgeStyle=orthogonalEdgeStyle;rounded=0;orthogonalLoop=1;jettySize=auto;html=1;" edge="1" parent="1" source="6-LAMqV4N6drt23zftci-61" target="6-LAMqV4N6drt23zftci-36">
          <mxGeometry relative="1" as="geometry" />
        </mxCell>
        <mxCell id="6-LAMqV4N6drt23zftci-61" value="sueldo" style="ellipse;whiteSpace=wrap;html=1;align=center;" vertex="1" parent="1">
          <mxGeometry x="-340" y="470" width="100" height="40" as="geometry" />
        </mxCell>
        <mxCell id="VW1xWesQLFZFUT1JMT77-4" style="edgeStyle=orthogonalEdgeStyle;rounded=0;orthogonalLoop=1;jettySize=auto;html=1;entryX=1;entryY=0.5;entryDx=0;entryDy=0;" edge="1" parent="1" source="VW1xWesQLFZFUT1JMT77-1" target="VW1xWesQLFZFUT1JMT77-2">
          <mxGeometry relative="1" as="geometry" />
        </mxCell>
        <mxCell id="VW1xWesQLFZFUT1JMT77-1" value="dpto" style="whiteSpace=wrap;html=1;" vertex="1" parent="1">
          <mxGeometry x="350" y="80" width="120" height="60" as="geometry" />
        </mxCell>
        <mxCell id="VW1xWesQLFZFUT1JMT77-2" value="trabaja en" style="rhombus;whiteSpace=wrap;html=1;" vertex="1" parent="1">
          <mxGeometry x="160" y="85" width="122.5" height="50" as="geometry" />
        </mxCell>
        <mxCell id="-UimedtzzMKlJ9vcg_7U-2" value="tiene" style="rhombus;whiteSpace=wrap;html=1;" vertex="1" parent="1">
          <mxGeometry x="140" y="390" width="60" height="40" as="geometry" />
        </mxCell>
        <mxCell id="-UimedtzzMKlJ9vcg_7U-7" value="supervisa" style="rhombus;whiteSpace=wrap;html=1;" vertex="1" parent="1">
          <mxGeometry x="-137.5" y="385" width="57.5" height="50" as="geometry" />
        </mxCell>
        <mxCell id="-UimedtzzMKlJ9vcg_7U-13" value="1,1" style="text;html=1;align=center;verticalAlign=middle;resizable=0;points=[];autosize=1;strokeColor=none;fillColor=none;" vertex="1" parent="1">
          <mxGeometry x="310" y="90" width="40" height="30" as="geometry" />
        </mxCell>
        <mxCell id="-UimedtzzMKlJ9vcg_7U-15" value="1,N" style="text;html=1;align=center;verticalAlign=middle;resizable=0;points=[];autosize=1;strokeColor=none;fillColor=none;" vertex="1" parent="1">
          <mxGeometry x="80" y="85" width="40" height="30" as="geometry" />
        </mxCell>
        <mxCell id="-UimedtzzMKlJ9vcg_7U-16" value="N,1" style="text;html=1;align=center;verticalAlign=middle;resizable=0;points=[];autosize=1;strokeColor=none;fillColor=none;" vertex="1" parent="1">
          <mxGeometry x="200" y="58" width="40" height="30" as="geometry" />
        </mxCell>
        <mxCell id="-UimedtzzMKlJ9vcg_7U-17" value="1,N" style="text;html=1;align=center;verticalAlign=middle;resizable=0;points=[];autosize=1;strokeColor=none;fillColor=none;" vertex="1" parent="1">
          <mxGeometry x="80" y="388" width="40" height="30" as="geometry" />
        </mxCell>
        <mxCell id="-UimedtzzMKlJ9vcg_7U-18" value="1,1" style="text;html=1;align=center;verticalAlign=middle;resizable=0;points=[];autosize=1;strokeColor=none;fillColor=none;" vertex="1" parent="1">
          <mxGeometry x="220" y="388" width="40" height="30" as="geometry" />
        </mxCell>
        <mxCell id="-UimedtzzMKlJ9vcg_7U-19" value="1,N" style="text;html=1;align=center;verticalAlign=middle;resizable=0;points=[];autosize=1;strokeColor=none;fillColor=none;" vertex="1" parent="1">
          <mxGeometry x="150" y="360" width="40" height="30" as="geometry" />
        </mxCell>
        <mxCell id="-UimedtzzMKlJ9vcg_7U-22" style="edgeStyle=orthogonalEdgeStyle;rounded=0;orthogonalLoop=1;jettySize=auto;html=1;entryX=0.583;entryY=1.05;entryDx=0;entryDy=0;entryPerimeter=0;" edge="1" parent="1" source="-UimedtzzMKlJ9vcg_7U-20" target="VW1xWesQLFZFUT1JMT77-1">
          <mxGeometry relative="1" as="geometry">
            <mxPoint x="410" y="150" as="targetPoint" />
          </mxGeometry>
        </mxCell>
        <mxCell id="-UimedtzzMKlJ9vcg_7U-20" value="dirige" style="rhombus;whiteSpace=wrap;html=1;" vertex="1" parent="1">
          <mxGeometry x="380" y="263" width="80" height="80" as="geometry" />
        </mxCell>
        <mxCell id="-UimedtzzMKlJ9vcg_7U-23" value="0,1" style="text;html=1;align=center;verticalAlign=middle;resizable=0;points=[];autosize=1;strokeColor=none;fillColor=none;" vertex="1" parent="1">
          <mxGeometry x="420" y="145" width="40" height="30" as="geometry" />
        </mxCell>
        <mxCell id="-UimedtzzMKlJ9vcg_7U-24" value="1,1" style="text;html=1;align=center;verticalAlign=middle;resizable=0;points=[];autosize=1;strokeColor=none;fillColor=none;" vertex="1" parent="1">
          <mxGeometry x="370" y="388" width="40" height="30" as="geometry" />
        </mxCell>
        <mxCell id="-UimedtzzMKlJ9vcg_7U-25" value="0,1" style="text;html=1;align=center;verticalAlign=middle;resizable=0;points=[];autosize=1;strokeColor=none;fillColor=none;" vertex="1" parent="1">
          <mxGeometry x="460" y="288" width="40" height="30" as="geometry" />
        </mxCell>
        <mxCell id="-UimedtzzMKlJ9vcg_7U-27" value="N,M" style="text;html=1;align=center;verticalAlign=middle;resizable=0;points=[];autosize=1;strokeColor=none;fillColor=none;" vertex="1" parent="1">
          <mxGeometry x="40" y="655" width="50" height="30" as="geometry" />
        </mxCell>
        <mxCell id="-UimedtzzMKlJ9vcg_7U-28" value="1,N" style="text;html=1;align=center;verticalAlign=middle;resizable=0;points=[];autosize=1;strokeColor=none;fillColor=none;" vertex="1" parent="1">
          <mxGeometry x="-230" y="438" width="40" height="30" as="geometry" />
        </mxCell>
        <mxCell id="-UimedtzzMKlJ9vcg_7U-29" value="1,N" style="text;html=1;align=center;verticalAlign=middle;resizable=0;points=[];autosize=1;strokeColor=none;fillColor=none;" vertex="1" parent="1">
          <mxGeometry x="300" y="618" width="40" height="30" as="geometry" />
        </mxCell>
      </root>
    </mxGraphModel>
  </diagram>
  <diagram id="LpjdC2HqE4lcw7Co1Rpe" name="PÃ¡gina-2">
    <mxGraphModel dx="1426" dy="766" grid="1" gridSize="10" guides="1" tooltips="1" connect="1" arrows="1" fold="1" page="1" pageScale="1" pageWidth="827" pageHeight="1169" math="0" shadow="0">
      <root>
        <mxCell id="0" />
        <mxCell id="1" parent="0" />
        <mxCell id="Fdp1xizKxc_yzgoKIjga-1" value="TRABAJADOR" style="shape=rectangle;rounded=1;whiteSpace=wrap;html=1;spacing=8;" vertex="1" parent="1">
          <mxGeometry x="370" y="10" width="220" height="120" as="geometry" />
        </mxCell>
        <mxCell id="Fdp1xizKxc_yzgoKIjga-2" value="GERENTE" style="shape=rectangle;rounded=1;whiteSpace=wrap;html=1;spacing=8;dashed=1;" vertex="1" parent="1">
          <mxGeometry x="150" y="170" width="180" height="80" as="geometry" />
        </mxCell>
        <mxCell id="Fdp1xizKxc_yzgoKIjga-4" value="VENDEDOR" style="shape=rectangle;rounded=1;whiteSpace=wrap;html=1;spacing=8;dashed=1;" vertex="1" parent="1">
          <mxGeometry x="827" y="195" width="200" height="80" as="geometry" />
        </mxCell>
        <mxCell id="Fdp1xizKxc_yzgoKIjga-6" value="PRODUCTO" style="shape=rectangle;rounded=1;whiteSpace=wrap;html=1;spacing=8;" vertex="1" parent="1">
          <mxGeometry x="1105" y="355" width="220" height="110" as="geometry" />
        </mxCell>
        <mxCell id="Fdp1xizKxc_yzgoKIjga-8" value="SUPERVISA" style="shape=rhombus;perimeter=rhombusPerimeter;whiteSpace=wrap;html=1;" vertex="1" parent="1">
          <mxGeometry x="354" y="310" width="120" height="70" as="geometry" />
        </mxCell>
        <mxCell id="Fdp1xizKxc_yzgoKIjga-9" value="SUPERVISA" style="shape=rhombus;perimeter=rhombusPerimeter;whiteSpace=wrap;html=1;" vertex="1" parent="1">
          <mxGeometry x="770" y="430" width="120" height="70" as="geometry" />
        </mxCell>
        <mxCell id="Fdp1xizKxc_yzgoKIjga-10" value="TRABAJA" style="shape=rhombus;perimeter=rhombusPerimeter;whiteSpace=wrap;html=1;" vertex="1" parent="1">
          <mxGeometry x="1150" y="600" width="130" height="70" as="geometry" />
        </mxCell>
        <mxCell id="Fdp1xizKxc_yzgoKIjga-11" value="VENDE" style="shape=rhombus;perimeter=rhombusPerimeter;whiteSpace=wrap;html=1;" vertex="1" parent="1">
          <mxGeometry x="1140" y="190" width="150" height="90" as="geometry" />
        </mxCell>
        <mxCell id="Fdp1xizKxc_yzgoKIjga-12" value="" style="edgeStyle=orthogonalEdgeStyle;dashed=1;endArrow=block;html=1;" edge="1" parent="1" source="Fdp1xizKxc_yzgoKIjga-2" target="Fdp1xizKxc_yzgoKIjga-1">
          <mxGeometry x="0.0265" relative="1" as="geometry">
            <mxPoint as="offset" />
          </mxGeometry>
        </mxCell>
        <mxCell id="Fdp1xizKxc_yzgoKIjga-17" value="" style="edgeStyle=orthogonalEdgeStyle;rounded=0;endArrow=block;html=1;" edge="1" parent="1" source="Fdp1xizKxc_yzgoKIjga-2" target="Fdp1xizKxc_yzgoKIjga-8">
          <mxGeometry relative="1" as="geometry" />
        </mxCell>
        <mxCell id="Fdp1xizKxc_yzgoKIjga-18" value="" style="edgeStyle=orthogonalEdgeStyle;rounded=0;endArrow=block;html=1;" edge="1" parent="1" source="Fdp1xizKxc_yzgoKIjga-8" target="Fdp1xizKxc_yzgoKIjga-3">
          <mxGeometry relative="1" as="geometry" />
        </mxCell>
        <mxCell id="Fdp1xizKxc_yzgoKIjga-19" value="" style="edgeStyle=orthogonalEdgeStyle;rounded=0;endArrow=block;html=1;" edge="1" parent="1" source="Fdp1xizKxc_yzgoKIjga-3" target="Fdp1xizKxc_yzgoKIjga-9">
          <mxGeometry relative="1" as="geometry" />
        </mxCell>
        <mxCell id="Fdp1xizKxc_yzgoKIjga-20" value="" style="edgeStyle=orthogonalEdgeStyle;rounded=0;endArrow=block;html=1;" edge="1" parent="1" source="Fdp1xizKxc_yzgoKIjga-9" target="Fdp1xizKxc_yzgoKIjga-4">
          <mxGeometry relative="1" as="geometry" />
        </mxCell>
        <mxCell id="Fdp1xizKxc_yzgoKIjga-22" value="" style="edgeStyle=orthogonalEdgeStyle;rounded=0;endArrow=block;html=1;" edge="1" parent="1" source="Fdp1xizKxc_yzgoKIjga-10" target="Fdp1xizKxc_yzgoKIjga-6">
          <mxGeometry relative="1" as="geometry" />
        </mxCell>
        <mxCell id="Fdp1xizKxc_yzgoKIjga-23" value="" style="edgeStyle=orthogonalEdgeStyle;rounded=0;endArrow=block;html=1;" edge="1" parent="1" source="Fdp1xizKxc_yzgoKIjga-4" target="Fdp1xizKxc_yzgoKIjga-11">
          <mxGeometry relative="1" as="geometry" />
        </mxCell>
        <mxCell id="Fdp1xizKxc_yzgoKIjga-24" value="" style="edgeStyle=orthogonalEdgeStyle;rounded=0;endArrow=block;html=1;" edge="1" parent="1" source="Fdp1xizKxc_yzgoKIjga-11" target="Fdp1xizKxc_yzgoKIjga-6">
          <mxGeometry relative="1" as="geometry" />
        </mxCell>
        <mxCell id="Fdp1xizKxc_yzgoKIjga-3" value="JEFE" style="shape=rectangle;rounded=1;whiteSpace=wrap;html=1;spacing=8;dashed=1;" vertex="1" parent="1">
          <mxGeometry x="470" y="425" width="220" height="80" as="geometry" />
        </mxCell>
        <mxCell id="Fdp1xizKxc_yzgoKIjga-29" value="" style="edgeStyle=orthogonalEdgeStyle;dashed=1;endArrow=block;html=1;exitX=0.618;exitY=0;exitDx=0;exitDy=0;exitPerimeter=0;entryX=0.75;entryY=1;entryDx=0;entryDy=0;" edge="1" parent="1" source="Fdp1xizKxc_yzgoKIjga-3" target="Fdp1xizKxc_yzgoKIjga-1">
          <mxGeometry x="0.0265" relative="1" as="geometry">
            <mxPoint x="680" y="330" as="sourcePoint" />
            <mxPoint x="1020" y="280" as="targetPoint" />
            <mxPoint as="offset" />
          </mxGeometry>
        </mxCell>
        <mxCell id="Fdp1xizKxc_yzgoKIjga-32" value="" style="edgeStyle=orthogonalEdgeStyle;dashed=1;endArrow=block;html=1;exitX=0.5;exitY=0;exitDx=0;exitDy=0;entryX=1;entryY=0.75;entryDx=0;entryDy=0;" edge="1" parent="1" source="Fdp1xizKxc_yzgoKIjga-4" target="Fdp1xizKxc_yzgoKIjga-1">
          <mxGeometry x="0.0265" relative="1" as="geometry">
            <mxPoint x="940" y="190" as="sourcePoint" />
            <mxPoint x="910" y="80" as="targetPoint" />
            <mxPoint as="offset" />
          </mxGeometry>
        </mxCell>
        <mxCell id="hX19P0mqET8jcQrW7FYs-1" value="DEPARTAMENTO" style="shape=rectangle;rounded=1;whiteSpace=wrap;html=1;spacing=8;" vertex="1" parent="1">
          <mxGeometry x="940" y="20" width="220" height="110" as="geometry" />
        </mxCell>
      </root>
    </mxGraphModel>
  </diagram>
</mxfile>
